<svg version="1.1" id="Capa_1" xmlns="http://www.w3.org/2000/svg" xmlns:xlink="http://www.w3.org/1999/xlink" x="0px" y="0px"
	 viewBox="0 0 32 32" style="enable-background:new 0 0 32 32;" xml:space="preserve">

<path class="st0" fill="currentColor" d="M9.9,24.6c0,0-1.1-3.9-3.1-1.1l0.6,4.9h17.2l0.6-4.9c-2-2.8-3.1,1.1-3.1,1.1S9.9,24.6,9.9,24.6z M8.7,20.6
	c0,0,2.2,1,2.2,2.9h10.2c0-1.9,2.2-2.9,2.2-2.9s-0.3-3.8-0.7-8.3c-0.4-4.6-6.5-4-6.5-4s-6.1-0.6-6.5,4C9.1,16.8,8.7,20.6,8.7,20.6
	C8.7,20.6,8.7,20.6,8.7,20.6z M11.9,4.1c0,2-0.8,3.6,4.1,3.6s4.1-1.7,4.1-3.6C20.1,2.1,11.9,2.1,11.9,4.1L11.9,4.1z"/>
</svg>
