<svg version="1.1" id="Capa_1" xmlns="http://www.w3.org/2000/svg" xmlns:xlink="http://www.w3.org/1999/xlink" x="0px" y="0px"
	 viewBox="0 0 24 24" style="enable-background:new 0 0 24 24;" xml:space="preserve">
<style type="text/css">
	.st0{fill:#FFFFFF;}
</style>
<path class="st0" d="M7.6,17.4c0-0.7-0.6-1.3-1.3-1.3S5,16.7,5,17.4s0.6,1.3,1.3,1.3S7.6,18.1,7.6,17.4z M15.5,18.3
	c0-0.2-0.2-0.4-0.4-0.4H8.9c-0.2,0-0.4,0.2-0.4,0.4s0.2,0.4,0.4,0.4h6.2C15.3,18.7,15.5,18.5,15.5,18.3z M19,17.4
	c0-0.7-0.6-1.3-1.3-1.3s-1.3,0.6-1.3,1.3s0.6,1.3,1.3,1.3C18.5,18.7,19,18.1,19,17.4z M3.8,11.7H1.9c-0.2,0-0.4,0.2-0.4,0.4v0.4
	c0,0.7,0.8,0.9,1.4,0.9L3.8,11.7z M20.8,14.5c-0.7-1.2-1.5-2.8-2.4-4.2c-0.7-1.2-1.2-1.7-2.4-1.9C14.8,8.1,13.7,8,12,8
	S9.2,8.1,8,8.3c-1.2,0.2-1.7,0.8-2.4,1.9c-0.9,1.4-1.7,3-2.4,4.2c-0.6,1.1-0.9,2.1-0.9,3.3c0,1.2,0.4,2.1,0.9,3.4v1.9
	c0,0.5,0.4,0.9,0.9,0.9h1.3c0.5,0,0.9-0.4,0.9-0.9v-0.9h11.4v0.9c0,0.5,0.4,0.9,0.9,0.9h1.3c0.5,0,0.9-0.4,0.9-0.9v-1.9
	c0.5-1.2,0.9-2.2,0.9-3.4C21.7,16.6,21.4,15.6,20.8,14.5z M7.1,11.1c0.6-1,0.8-1,1.2-1.1c1.1-0.2,2.2-0.3,3.7-0.3s2.6,0.1,3.7,0.3
	c0.5,0.1,0.6,0.1,1.2,1.1c0.4,0.6,0.7,1.2,1.1,1.8c-1.3,0.2-3.5,0.5-6,0.5c-2.7,0-4.9-0.3-6-0.5C6.3,12.3,6.7,11.7,7.1,11.1z
	 M17.3,20.5H6.7c-1.5,0-2.7-1.2-2.7-2.7c0-1.4,0.4-2.1,1-3.2c0.9,0.2,3.5,0.6,6.9,0.6c3.1,0,5.8-0.4,6.9-0.6c0.6,1.1,1,1.8,1,3.2
	C19.9,19.3,18.7,20.5,17.3,20.5z M22.1,11.7c0.2,0,0.4,0.2,0.4,0.4v0.4c0,0.7-0.8,0.9-1.4,0.9l-1-1.8L22.1,11.7L22.1,11.7z M17.7,2
	H12V1.4c0-0.8-0.7-1.5-1.5-1.4L6.3,0.5C5.6,0.5,5,1.1,5,1.9v3.3c0,0.7,0.6,1.3,1.3,1.4L10.5,7C11.3,7.1,12,6.4,12,5.6V5h2.2L15,4
	l0.8,1l0.9-1l0.8,1L19,3.7C19,3.7,17.7,2,17.7,2z M7,5.5L6.3,5.5C6.1,5.5,6,5.3,6,5.1V1.8c0-0.2,0.1-0.3,0.3-0.3L7,1.4L7,5.5L7,5.5z
	"/>
</svg>
