<svg version="1.1" id="Capa_1" xmlns="http://www.w3.org/2000/svg" xmlns:xlink="http://www.w3.org/1999/xlink" x="0px" y="0px"
	 viewBox="0 0 24 24" style="enable-background:new 0 0 24 24;" xml:space="preserve">
<style type="text/css">
	.st0{fill:#FFFFFF;}
</style>
<path class="st0" d="M9.5,10.3c0-0.4-0.3-0.7-0.8-0.7S8,9.9,8,10.3S8.3,11,8.8,11S9.5,10.7,9.5,10.3z M14,10.8
	c0-0.1-0.1-0.2-0.2-0.2h-3.5c-0.1,0-0.2,0.1-0.2,0.2s0.1,0.2,0.2,0.2h3.5C13.9,11,14,10.9,14,10.8z M16,10.3c0-0.4-0.3-0.7-0.8-0.7
	s-0.8,0.3-0.8,0.7s0.3,0.7,0.8,0.7S16,10.7,16,10.3z M7.4,7.1H6.2C6.1,7.1,6,7.2,6,7.3v0.3C6,8,6.5,8.1,6.8,8.1L7.4,7.1z M17,8.6
	c-0.4-0.8-0.9-1.6-1.3-2.4c-0.4-0.6-0.7-1-1.4-1.1C13.6,5,13,5,12,5s-1.6,0-2.3,0.2C9,5.3,8.7,5.6,8.3,6.3C7.9,7,7.4,7.8,7,8.6
	c-0.3,0.6-0.5,1.2-0.5,1.9c0,0.7,0.2,1.2,0.5,1.9v1.1C7,13.8,7.2,14,7.5,14h0.8c0.3,0,0.5-0.2,0.5-0.5V13h6.5v0.5
	c0,0.3,0.2,0.5,0.5,0.5h0.8c0.3,0,0.5-0.2,0.5-0.5v-1.1c0.3-0.7,0.5-1.2,0.5-1.9C17.5,9.8,17.4,9.3,17,8.6z M9.2,6.8
	c0.3-0.6,0.4-0.6,0.7-0.6C10.5,6,11.1,6,12,6s1.5,0,2.1,0.2c0.3,0,0.4,0.1,0.7,0.6c0.2,0.3,0.4,0.7,0.6,1c-0.7,0.1-2,0.3-3.4,0.3
	c-1.5,0-2.8-0.2-3.4-0.3C8.8,7.4,9,7.1,9.2,6.8z M15,12H9c-0.8,0-1.5-0.7-1.5-1.5c0-0.8,0.3-1.2,0.6-1.8C8.6,8.8,10.1,9,12,9
	c1.7,0,3.3-0.2,3.9-0.3c0.3,0.6,0.6,1,0.6,1.8C16.5,11.3,15.8,12,15,12z M17.8,7.1c0.1,0,0.2,0.1,0.2,0.2v0.3c0,0.4-0.5,0.5-0.8,0.5
	l-0.5-1L17.8,7.1L17.8,7.1z M12,0C6.5,0,2,4.4,2,9.8c0,5.5,4.4,9.3,10,14.2c5.6-4.9,10-8.7,10-14.2C22,4.4,17.5,0,12,0z M12,18
	c-4.4,0-8-3.6-8-8s3.6-8,8-8s8,3.6,8,8S16.4,18,12,18z"/>
</svg>
