<svg version="1.1" id="Capa_1" xmlns="http://www.w3.org/2000/svg" xmlns:xlink="http://www.w3.org/1999/xlink" x="0px" y="0px"
	 viewBox="0 0 24 24" style="enable-background:new 0 0 24 24;" xml:space="preserve">
<style type="text/css">
	.st0{fill-rule:evenodd;clip-rule:evenodd;fill:#FFFFFF;}
</style>
<path class="st0" d="M4.8,19.4c-3-1.9-4.9-5.2-4.9-8.9C-0.1,4.7,4.6,0,10.4,0c3.6,0,6.8,1.8,8.7,4.6c3,1.9,4.9,5.2,4.9,8.9
	C24,19.3,19.3,24,13.5,24C9.9,24,6.7,22.2,4.8,19.4C4.8,19.4,4.8,19.4,4.8,19.4z M13.5,4c5.2,0,9.5,4.3,9.5,9.5S18.7,23,13.5,23
	S4,18.7,4,13.5S8.3,4,13.5,4z M14,19h-1v-0.9c-2.3-0.3-2.6-2.2-2.6-2.7h1.1c0,0.4,0.2,1.8,2.2,1.8c0.6,0,1.1-0.1,1.5-0.4
	c0.4-0.3,0.5-0.6,0.5-1c0-0.8-0.5-1.4-2.1-1.7c-2.4-0.5-2.9-1.4-2.9-2.5c0-1.5,1.2-2.2,2.3-2.4V8h1v1c2.5,0.2,2.7,2.2,2.7,2.8h-1.1
	c0-1.2-0.9-1.8-2-1.8c-1.1,0-1.9,0.5-1.9,1.4c0,0.8,0.4,1.2,2,1.6c1.9,0.5,3,1.1,3,2.7c0,1.7-1.5,2.4-2.7,2.5C14,18.2,14,19,14,19z
	 M16.9,3.5C15.2,2,12.9,1,10.4,1c-5.2,0-9.5,4.3-9.5,9.5c0,2.6,1.1,5,2.8,6.7l0,0C3.2,16.1,3,14.8,3,13.5C3,7.7,7.7,3,13.5,3
	C14.7,3,15.8,3.2,16.9,3.5z"/>
</svg>
