<svg version="1.1" id="Layer_1" xmlns="http://www.w3.org/2000/svg" xmlns:xlink="http://www.w3.org/1999/xlink" x="0px" y="0px"
	 viewBox="0 0 512 512" style="enable-background:new 0 0 512 512;" xml:space="preserve">

<path class="st0" fill="currentColor" d="M274.9,98.7H146.7c-4.4,0-8,3.6-8,8V192c0,4.4,3.6,8,8,8h128.2c4.4,0,8-3.6,8-8v-85.3
	C282.9,102.3,279.3,98.7,274.9,98.7z M266.9,184H154.7v-69.3h112.2V184z M210.8,240.6c-2.1,0-4.2,0.8-5.7,2.4
	c-3.7,3.7-36,36.9-36,63c0,28,18.7,50.7,41.7,50.7s41.7-22.7,41.7-50.7c0-26.1-32.4-59.3-36-63C215,241.5,212.9,240.6,210.8,240.6
	L210.8,240.6z M210.8,340.7c-14.2,0-25.7-15.6-25.7-34.7c0-13.7,15.4-34,25.7-45.6c10.1,11.5,25.7,32.1,25.7,45.6
	C236.5,325.1,225,340.7,210.8,340.7z M436,225.1l-47.7-79.9c-2.3-3.8-7.2-5-11-2.8c-3.8,2.3-5,7.2-2.8,11l29.5,49.4
	c-17.6,9.3-24.2,31.1-14.9,48.7c6.3,11.8,18.5,19.1,31.9,19.1h0.1v54.7c-0.3,16.2-13.6,29-29.8,28.7c-15.7-0.3-28.4-13-28.7-28.7
	v-96.1c-0.1-21.9-15.7-40.6-37.3-44.6V84c0-15.5-12.5-28-28-28H124.2c-15.5,0-28,12.5-28,28v313.3h-3.4c-9.9,0-18,8.1-18,18V438
	c0,9.9,8.1,18,18,18l0,0h236c9.9,0,18-8.1,18-18l0,0v-22.7c0-9.9-8.1-18-18-18h-3.4V201.1c12.6,3.6,21.2,15.1,21.3,28.2v96.1
	c0.4,25,20.9,45,45.9,44.6c24.5-0.4,44.2-20.1,44.6-44.6v-96.1C437.2,227.8,436.8,226.4,436,225.1z M330.8,415.3V438
	c0,1.1-0.9,2-2,2h-236c-1.1,0-2-0.9-2-2v-22.7c0-1.1,0.9-2,2-2h236C329.9,413.3,330.8,414.2,330.8,415.3z M112.2,397.3V84
	c0-6.6,5.4-12,12-12h173.2c6.6,0,12,5.4,12,12v313.3L112.2,397.3z M421.2,254.7c-11,0.1-20.1-8.8-20.2-19.8
	c-0.1-7.7,4.3-14.8,11.3-18.2l8.9,14.8V254.7z"/>
</svg>
