<svg version="1.1" id="Capa_1" xmlns="http://www.w3.org/2000/svg" xmlns:xlink="http://www.w3.org/1999/xlink" x="0px" y="0px"
	 viewBox="0 0 24 24" style="enable-background:new 0 0 24 24;" xml:space="preserve">

<path class="st0" fill="currentColor" d="M21,1c-0.4,1.4-1.6,2.6-3,3c1.4,0.4,2.6,1.6,3,3c0.4-1.4,1.6-2.6,3-3C22.6,3.6,21.4,2.4,21,1z M2,3
	C1.7,4,1,4.7,0,5c1,0.3,1.7,1,2,2c0.3-1,1-1.7,2-2C3,4.7,2.3,4,2,3z M20.5,19c-0.4,1.2-1.3,2.1-2.5,2.5c1.2,0.4,2.1,1.3,2.5,2.5
	c0.4-1.2,1.3-2.1,2.5-2.5C21.8,21.1,20.9,20.2,20.5,19z M11,0c-0.3,1-1,1.7-2,2c1,0.3,1.7,1,2,2c0.3-1,1-1.7,2-2C12,1.7,11.3,1,11,0
	z M3,18c-0.4,1.4-1.6,2.6-3,3c1.4,0.4,2.6,1.6,3,3c0.4-1.4,1.6-2.6,3-3C4.6,20.6,3.4,19.4,3,18z M17.1,6H7l-5,5.6L12,24l10-12.3
	C22,11.7,17.1,6,17.1,6z M7.7,12l3,7.2L4.9,12C4.9,12,7.7,12,7.7,12z M15.2,12L12,19.7L8.8,12H15.2z M9.2,11L12,8.2l2.8,2.8
	C14.8,11,9.2,11,9.2,11z M16.3,12h2.8l-5.9,7.3C13.3,19.3,16.3,12,16.3,12z M18.8,11h-2.5l-3-3h2.9L18.8,11z M7.9,8h2.9l-3,3H5.2
	L7.9,8z"/>
</svg>
