<svg version="1.1" id="Capa_1" xmlns="http://www.w3.org/2000/svg" xmlns:xlink="http://www.w3.org/1999/xlink" x="0px" y="0px"
	 viewBox="0 0 24 24" style="enable-background:new 0 0 24 24;" xml:space="preserve">
<style type="text/css">
	.st0{fill:#FFFFFF;}
</style>
<path class="st0" d="M21.9,13.7l2,0.2c-0.1,0.9-0.4,1.7-0.7,2.5l-1.8-0.9C21.6,14.8,21.8,14.3,21.9,13.7z M19.3,21.5l-1.4-1.4
	c-0.5,0.4-1,0.7-1.6,0.9l0.7,1.9C17.8,22.5,18.6,22.1,19.3,21.5z M20.5,17.2c-0.3,0.5-0.7,1.1-1.1,1.5l1.4,1.4
	c0.6-0.6,1.1-1.3,1.5-2.1C22.3,18.1,20.5,17.2,20.5,17.2z M0,12c0,6.6,5.4,12,12,12c1.1,0,2.1-0.2,3.1-0.4l-0.7-1.9
	C13.7,21.9,12.9,22,12,22C6.5,22,2,17.5,2,12S6.5,2,12,2c2.2,0,4.3,0.7,6,2l-2.1,2l7,1.4l-1.4-7l-2.2,2.2C17.4,1,14.8,0,12,0
	C5.4,0,0,5.4,0,12z M23.8,9.6h-2.1c0.2,0.7,0.3,1.3,0.3,2l2,0.2C24,11.1,23.9,10.4,23.8,9.6z M14.8,15v-1.4h-2.6v-1.3l2.7-3.7h1.3
	v3.7H17v1.3h-0.8V15C16.2,15,14.8,15,14.8,15z M14.8,12.3v-1.7l-1.3,1.7C13.5,12.3,14.8,12.3,14.8,12.3z M7,15c0-1,0.3-1.7,1.2-2.4
	c1.1-0.8,2-1.2,2-1.9c0-0.5-0.3-0.8-0.8-0.8c-0.7,0-0.9,0.7-0.9,1.4H7.1c-0.1-1.8,1-2.7,2.3-2.7c1.3,0,2.2,0.9,2.2,2
	c0,0.6-0.2,1.1-0.6,1.5c-0.6,0.7-1.6,1-2.2,1.7h2.8V15C11.7,15,7,15,7,15z"/>
</svg>
