<svg version="1.1" id="Capa_1" xmlns="http://www.w3.org/2000/svg" xmlns:xlink="http://www.w3.org/1999/xlink" x="0px" y="0px"
	 viewBox="0 0 24 24" style="enable-background:new 0 0 24 24;" xml:space="preserve">

<path class="st0" fill="currentColor" d="M11.1,3.3L11,1.7c0-0.4,0.2-0.8,0.7-0.8c0.4,0,0.8,0.3,0.8,0.7l0.2,1.6c0,0.4-0.2,0.8-0.7,0.8
	C11.6,4,11.2,3.7,11.1,3.3z M9.9,3.8c0.4,0,0.7-0.4,0.7-0.8l-0.2-1.6c0-0.4-0.4-0.7-0.8-0.7c-0.4,0-0.7,0.4-0.7,0.8l0.2,1.6
	C9.1,3.5,9.5,3.8,9.9,3.8z M15.1,2.8l0.2,1.4c0,0.4,0.4,0.7,0.8,0.6c0.4,0,0.6-0.4,0.6-0.8l-0.2-1.4c0-0.4-0.4-0.7-0.8-0.6
	C15.3,2.1,15,2.4,15.1,2.8z M13.2,3.7c0,0.4,0.4,0.7,0.8,0.7c0.4,0,0.7-0.4,0.7-0.8L14.5,2c0-0.4-0.4-0.7-0.8-0.7
	c-0.4,0-0.7,0.4-0.7,0.8C13,2.1,13.2,3.7,13.2,3.7z M20.6,6.8c-0.3,0.3-0.7,0.4-1.1,0.4L13,6.5c0-1.1-1.1-1.9-2.1-1.3l-1.8,1l-1-0.1
	C7.6,6.1,7.1,6.3,6.6,6.6C6,7.3,5.1,7.6,4.1,7.5C3.2,7.4,2.4,7,1.9,6.3C1.6,6.1,1.4,5.7,1.3,5.4l3,0.3c0.7-0.5,0.8-2.3,0.2-2.9
	l-3-0.3C1.7,2.2,2,1.9,2.2,1.7c0.6-0.5,1.5-0.8,2.4-0.7C5.6,1,6.5,1.5,7,2.2C7.3,2.7,7.8,3,8.4,3l0,0c0.3,1.6,1.7,1.6,2.4,1
	c0.4,0.7,1.5,0.8,2.1,0.3C13.2,5,14,5.2,14.7,4.8c0.5,1.1,2.7,1,2.5-1l2.5,0.2c0.4,0,0.8,0.2,1.1,0.6C21.4,5.3,21.3,6.3,20.6,6.8z
	 M20,5.2c-0.2-0.3-0.6-0.3-0.9-0.1C18.8,5.3,18.8,5.8,19,6c0.2,0.3,0.6,0.3,0.9,0.1C20.2,5.9,20.3,5.5,20,5.2z M13.6,7.2
	c-0.6-0.1-1.2,0.3-2.1,1.1c-0.2,0.1-0.2,0.3-0.1,0.4l1.6,2.3c0,0,2.2-0.2,3.1-0.3c-0.3-1.4,0.5-2.2,0.7-3.1
	C16.7,7.6,13.6,7.2,13.6,7.2z M12,7.1c0.7-0.6,0-1.7-0.8-1.3c-3,1.7-2.8,1.6-2.9,1.7C8,7.7,7.9,8.2,8.1,8.5l1.4,2.2
	c0.2,0.3,0.6,0.5,1,0.5c0.4,0,1.6-0.1,1.6-0.1s-1-1.6-1.3-2c-0.3-0.4-0.3-0.9,0.1-1.3C11,7.8,12,7.1,12,7.1z"/>
<path class="st0" fill="currentColor" d="M11.4,16.8v-2.7h1.1c0.8,0,1.1,0.3,1.6,0.8c0.4,0.4,1.7,1.8,1.7,1.8H11.4z M10.5,14.1h-2
	c-0.6,0-0.9,0.2-1.2,0.5c-0.3,0.3-0.8,0.8-1.3,1.5c1.5,0.6,3.6,0.7,4.5,0.7C10.5,16.8,10.5,14.1,10.5,14.1z M22.9,18.7
	c0-2.5-1.8-3-2.5-3.2c-1-0.3-1.5-0.4-2.7-0.7c-0.5-0.5-1.8-1.8-2.1-2.1l-0.1-0.1c-0.6-0.6-1.3-1.1-2.8-1.1H6c-0.5,0-0.7,0.4-0.2,0.8
	c-0.5,0.4-1.7,1.5-2.1,1.9c-1.2,1.2-2,2.2-2,4.1c0,2.2,1.2,3.8,2.8,3.8c0.4,1,1.3,1.8,2.5,1.8c1.2,0,2.1-0.7,2.5-1.8h5.6
	c0.4,1,1.3,1.8,2.5,1.8c1.2,0,2.1-0.7,2.5-1.8C21.7,22,22.9,20.7,22.9,18.7z M6.9,22.3c-0.6,0-1.1-0.5-1.1-1.1s0.5-1.1,1.1-1.1
	S8,20.6,8,21.2S7.5,22.3,6.9,22.3z M17.5,22.3c-0.6,0-1.1-0.5-1.1-1.1s0.5-1.1,1.1-1.1c0.6,0,1.1,0.5,1.1,1.1S18.1,22.3,17.5,22.3z
	 M20.1,20.4c-0.4-1.1-1.3-1.8-2.5-1.8c-1.2,0-2.2,0.8-2.5,1.8H9.4c-0.4-1.1-1.3-1.8-2.5-1.8c-1.2,0-2.1,0.8-2.5,1.8
	c-0.5-0.1-1-0.9-1-2.1c0-1.2,0.4-1.7,1.5-2.8c0.6-0.6,1.2-1.1,2-1.8c0.3-0.3,0.7-0.4,1.1-0.4h4.6c1.1,0,1.4,0.3,1.9,0.8
	c0.4,0.3,2.4,2.4,2.4,2.4s2,0.5,3.1,0.8c0.7,0.2,1.2,0.4,1.2,1.5C21.1,19.7,20.7,20.3,20.1,20.4z"/>
</svg>
