<svg version="1.1" id="Capa_1" xmlns="http://www.w3.org/2000/svg" xmlns:xlink="http://www.w3.org/1999/xlink" x="0px" y="0px"
	 viewBox="0 0 576 512" style="enable-background:new 0 0 576 512;" xml:space="preserve">

<path fill="currentColor" d="M351.3,31.8v216.7c0,8.6-6.9,15.5-15.5,15.5s-15.5-6.9-15.5-15.5V31.8c0-8.6,6.9-15.5,15.5-15.5
	C344.3,16.3,351.3,23.2,351.3,31.8z M371,178.3c-1.5,0.4-2.9,0.8-4.3,1.3V22.8c12.3-3.4,27.6-6.5,42.6-6.5c17.7,0,33,4.4,46.2,8.2
	l0.6,0.2c13.8,3.9,25.3,7.1,38.3,7.1s25.6-3.3,35.3-6.8c4.8-1.7,8.7-3.5,11.3-4.7c1.3-0.6,2.3-1.2,3-1.5c0.3-0.2,0.5-0.3,0.7-0.4
	h0.1c4.8-2.7,10.7-2.7,15.4,0.1s7.7,7.9,7.7,13.4v123.8c0,5.9-3.3,11.2-8.6,13.8l-6.9-13.8c6.9,13.8,6.9,13.8,6.9,13.8l0,0l0,0l0,0
	h-0.1l-0.3,0.2c-0.3,0.1-0.7,0.3-1.2,0.6c-1.1,0.5-2.5,1.2-4.4,1.9c-3.7,1.6-8.9,3.7-15.2,5.8c-12.5,4.2-29.8,8.6-47.6,8.6
	c-17.9,0-31.5-4.5-43.1-8.4l-0.5-0.1c-11.6-3.9-21.1-7-33.9-7C399.9,171.1,384.1,174.5,371,178.3L371,178.3z"/>
<path fill="currentColor" d="M377.1,456.7c13.1-9.6,21.1-25.3,21.1-42.2v-10.2c0-2.7-0.2-5.3-0.6-8c7.2-9.3,11.2-20.8,11.1-33v-10.2
	c0-3-0.3-6-0.8-8.9c12.4-8.7,20.4-23.2,20.4-39.5v-12.1c0-26.7-21.7-48.3-48.4-48.3l-37.5,0.1L320,219.5
	c-12.6-14.9-31.2-23.4-51.1-23.4l-59.6,0.1c-24.2,0-46.5,13-58.2,33.8l-15,26.7L59.7,257c-10,0-18.1,8.1-18.1,17.5
	s8.1,18.8,18.1,18.8l98.1-0.1c0.5-1,0.7-2.1,1.2-3.1l23.6-42.2c5.2-9.4,15.5-15.2,26.6-15.3l59.7-0.1c9.3,0,18,4,23.7,10.9
	l11.9,13.2h-33.4c-6.6,0-12.1,5.5-12.1,12.1s5.4,12.1,12.1,12.1l108.7-0.2c6.7,0,12.1,5.4,12.1,12.1v12.1c0,6.6-5.4,12.1-12.1,12.1
	h-12.1c-7.2,0-12.1,6-12.1,12.2c0,4.9,3,9.3,7.7,11.1c0.8,0.3,9,4.1,9,12.9v10.2c0,15.8-14.8,13.6-14.7,25.9c0,6.2,4.2,7.5,4.2,15
	v10.2c0,19.3-21.3,13.8-21.3,29.2c0,0.1,0,0.2,0,0.4l0.2,11.4c0,9.6-8.8,18.6-19.6,18.6l-98.2,0.1c-27.3,0-50.9-14.7-63.2-36.2
	L60,438.2c-10.1,0-18.1,8.1-18.1,17.5S50,474.5,60,474.5l81.6-0.1c20.5,22.7,50.1,36.2,81.5,36.1l98.2-0.1
	C351.4,510.2,376.1,486.6,377.1,456.7z"/>
</svg>
