<svg version="1.1" id="Capa_1" xmlns="http://www.w3.org/2000/svg" xmlns:xlink="http://www.w3.org/1999/xlink" x="0px" y="0px"
	 viewBox="0 0 512 512" style="enable-background:new 0 0 512 512;" xml:space="preserve">
<style type="text/css">
	.st0{fill:#FFFFFF;}
</style>
<path class="st0" d="M188.8,39.3c13.8,8.5,19.6,26.8,13.6,42.7l-28.2,74c-5.3,14-18.5,22.5-32.4,21l-42.6-4.6
	c-17.4,54.1-17.4,113.2,0,167.3l42.6-4.6c13.9-1.5,27.1,7,32.4,21l28.2,73.9c6.1,15.9,0.3,34.2-13.6,42.7l-56.4,34.8
	c-12.4,7.7-28,5.4-38.1-5.5c-125.7-135.9-125.7-356.1,0-492c10.1-10.9,25.8-13.1,38.2-5.5L188.8,39.3L188.8,39.3z M407.2,33.8
	C471.2,86.6,512,166.6,512,256s-40.8,169.4-104.7,222.2c-10.2,8.4-25.3,7-33.8-3.2s-7-25.3,3.2-33.8C430.1,397.1,464,330.5,464,256
	s-33.9-141.1-87.3-185.2c-10.2-8.4-11.7-23.6-3.2-33.8S397.1,25.3,407.2,33.8L407.2,33.8z M342.8,105.2
	C387.4,140.4,416,194.8,416,256s-28.6,115.6-73.1,150.8c-10.4,8.2-25.5,6.4-33.7-4s-6.4-25.5,4-33.7C346.6,342.7,368,301.8,368,256
	s-21.4-86.7-54.8-113.1c-10.4-8.2-12.2-23.3-4-33.7s23.3-12.2,33.7-4H342.8z M277.4,176.2c25.7,17.3,42.6,46.6,42.6,79.8
	s-16.9,62.5-42.5,79.7c-11,7.4-25.9,4.5-33.3-6.5s-4.5-25.9,6.5-33.3c12.9-8.7,21.3-23.3,21.3-39.9s-8.4-31.2-21.3-39.9
	c-11-7.4-13.9-22.3-6.5-33.3s22.3-13.9,33.3-6.5L277.4,176.2z"/>
</svg>
