<svg version="1.1" id="Capa_1" xmlns="http://www.w3.org/2000/svg" xmlns:xlink="http://www.w3.org/1999/xlink" x="0px" y="0px"
	 viewBox="0 0 24 24" style="enable-background:new 0 0 24 24;" xml:space="preserve">

<path class="st0" fill="currentColor" d="M12,4c1.7,0,3.6,0.4,5,1.1v9.4c0,1.6-0.4,1.9-5,4.8L12,4z M21,3v11.5c0,4.6-3.2,5.8-9,9.5c-5.8-3.7-9-4.9-9-9.5
	V3c1.9-1.7,5.3-3,9-3S19.1,1.3,21,3z M19,4c-1.7-1.2-4.4-2-7-2C9.4,2,6.7,2.8,5,4v10.5c0,3,1.7,3.8,7,7.1c5.3-3.3,7-4.1,7-7.1
	C19,14.5,19,4,19,4z"/>
</svg>
