<svg version="1.1" id="Capa_1" xmlns="http://www.w3.org/2000/svg" xmlns:xlink="http://www.w3.org/1999/xlink" x="0px" y="0px"
	 viewBox="0 0 640 512" style="enable-background:new 0 0 640 512;" xml:space="preserve">

<path fill = "currentColor" d="M15,15c9.4-9.3,24.6-9.3,34,0l63,63V40c0-13.3,10.7-24,24-24s24,10.7,24,24v96c0,13.3-10.7,24-24,24H40
	c-13.3,0-24-10.7-24-24s10.7-24,24-24h38.1L15,49C5.7,39.6,5.7,24.4,15,15z M591,15c9.4-9.4,24.6-9.4,33.9,0s9.4,24.6,0,33.9l-63,63
	H600c13.3,0,24,10.7,24,24s-10.7,24-24,24h-96c-13.3,0-24-10.7-24-24V40c0-13.3,10.7-24,24-24s24,10.7,24,24v38.1L591,15L591,15z
	 M15,497c-9.4-9.4-9.4-24.6,0-33.9l63-63H40c-13.3,0-24-10.7-24-24s10.7-24,24-24h96c13.3,0,24,10.7,24,24v96c0,13.3-10.7,24-24,24
	s-24-10.7-24-24v-38.2L49,497C39.6,506.4,24.4,506.4,15,497L15,497z M591,497l-63-63v38c0,13.3-10.7,24-24,24s-24-10.7-24-24v-96
	c0-13.3,10.7-24,24-24h96c13.3,0,24,10.7,24,24s-10.7,24-24,24h-38.1l63,63c9.4,9.4,9.4,24.6,0,33.9s-24.6,9.4-33.9,0V497z"/>
<path fill = "currentColor" d="M322.4,157.6c95.4,0,162,60.5,190.9,93.1c-28.1,36.9-94.7,107.7-190.9,107.7c-88.8,0-159.3-71-190.4-108.6
	C162,216.7,228.7,157.6,322.4,157.6z M322.4,117.4C170.3,117.4,81,249,81,249s97.1,149.6,241.3,149.6C477.6,398.6,563,249,563,249
	S476.9,117.4,322.4,117.4z M322.1,258l-67.5-43.6c-8.1,12.6-12.9,27.5-12.9,43.6c0,44.4,36,80.3,80.3,80.3s80.3-36,80.3-80.3
	s-36-80.3-80.3-80.3c-14.9,0-28.9,4.1-40.8,11.1L322.1,258z"/>
</svg>
