<svg version="1.1" id="Capa_1" xmlns:serif="http://www.serif.com/"
	 xmlns="http://www.w3.org/2000/svg" xmlns:xlink="http://www.w3.org/1999/xlink" x="0px" y="0px" viewBox="0 0 60 50"
	 style="enable-background:new 0 0 60 50;" xml:space="preserve">
<style type="text/css">
	.st0{fill-rule:evenodd;clip-rule:evenodd;}
</style>
<path class="st0" fill="currentColor" d="M28.4,9.3h-7.8V7.9c0-0.9-0.7-1.6-1.6-1.6S17.5,7,17.5,7.9v1.4h-1.6c-1.2,0-2.4,0.5-3.3,1.4
	c-0.9,0.9-1.4,2.1-1.4,3.3v25.1c0,1.2,0.5,2.4,1.4,3.3c0.9,0.9,2.1,1.4,3.3,1.4c6.5,0,21.6,0,28.1,0c1.2,0,2.4-0.5,3.3-1.4
	c0.9-0.9,1.4-2.1,1.4-3.3V14c0-1.2-0.5-2.4-1.4-3.3c-0.9-0.9-2.1-1.4-3.3-1.4h-1.6V7.8c0-0.9-0.7-1.6-1.6-1.6s-1.6,0.7-1.6,1.6v1.5
	h-7.8V7.8c0-0.9-0.7-1.6-1.6-1.6c-0.9,0-1.6,0.7-1.6,1.6C28.4,7.8,28.4,9.3,28.4,9.3z M45.6,21.9v17.2c0,0.4-0.2,0.8-0.5,1.1
	c-0.3,0.3-0.7,0.5-1.1,0.5c-6.5,0-21.6,0-28.1,0c-0.4,0-0.8-0.2-1.1-0.5c-0.3-0.3-0.5-0.7-0.5-1.1V21.9
	C14.4,21.9,45.6,21.9,45.6,21.9z M42.5,12.4v1.6c0,0.9-0.7,1.6-1.6,1.6s-1.6-0.7-1.6-1.6v-1.6h-7.8v1.7c0,0.9-0.7,1.6-1.6,1.6
	c-0.9,0-1.6-0.7-1.6-1.6v-1.7h-7.8v1.7c0,0.9-0.7,1.6-1.6,1.6s-1.6-0.7-1.6-1.6v-1.7h-1.6c-0.4,0-0.8,0.2-1.1,0.5
	c-0.3,0.3-0.5,0.7-0.5,1.1v4.8h31.3V14c0-0.4-0.2-0.8-0.5-1.1c-0.3-0.3-0.7-0.5-1.1-0.5C44.1,12.4,42.5,12.4,42.5,12.4z"/>
<rect x="19.1" y="26.5" class="st0" fill="currentColor" width="3.1" height="3.1"/>
<rect x="19.1" y="32.8" class="st0" fill="currentColor" width="3.1" height="3.1"/>
<rect x="25.3" y="26.5" class="st0" fill="currentColor" width="3.1" height="3.1"/>
<rect x="25.3" y="32.8" class="st0" fill="currentColor" width="3.1" height="3.1"/>
<rect x="31.6" y="26.5" class="st0" fill="currentColor" width="3.1" height="3.1"/>
<rect x="31.6" y="32.8" class="st0" fill="currentColor" width="3.1" height="3.1"/>
<rect x="37.8" y="26.5" class="st0" fill="currentColor" width="3.1" height="3.1"/>
<rect x="37.8" y="32.8" class="st0" fill="currentColor" width="3.1" height="3.1"/>
</svg>
